<svg xmlns="http://www.w3.org/2000/svg" viewBox="0 0 180 180" width="180" height="180">
  <defs>
    <linearGradient id="bg" x1="0%" y1="0%" x2="100%" y2="100%">
      <stop offset="0%" style="stop-color:#064e3b"/>
      <stop offset="100%" style="stop-color:#065f46"/>
    </linearGradient>
    <linearGradient id="accent" x1="0%" y1="0%" x2="100%" y2="100%">
      <stop offset="0%" style="stop-color:#10b981"/>
      <stop offset="100%" style="stop-color:#34d399"/>
    </linearGradient>
  </defs>
  <rect width="180" height="180" rx="36" fill="url(#bg)"/>
  <ellipse cx="90" cy="77" rx="39" ry="45" fill="none" stroke="url(#accent)" stroke-width="6.5"/>
  <rect x="84" y="120" width="12" height="32" rx="6" fill="url(#accent)"/>
  <line x1="53" y1="68" x2="127" y2="68" stroke="#34d399" stroke-width="2.5" opacity="0.6"/>
  <line x1="51" y1="80" x2="129" y2="80" stroke="#34d399" stroke-width="2.5" opacity="0.6"/>
  <line x1="53" y1="92" x2="127" y2="92" stroke="#34d399" stroke-width="2.5" opacity="0.6"/>
  <line x1="57" y1="104" x2="123" y2="104" stroke="#34d399" stroke-width="2.5" opacity="0.6"/>
  <line x1="71" y1="33" x2="71" y2="120" stroke="#34d399" stroke-width="2.5" opacity="0.6"/>
  <line x1="84" y1="32" x2="84" y2="120" stroke="#34d399" stroke-width="2.5" opacity="0.6"/>
  <line x1="97" y1="32" x2="97" y2="120" stroke="#34d399" stroke-width="2.5" opacity="0.6"/>
  <line x1="110" y1="33" x2="110" y2="120" stroke="#34d399" stroke-width="2.5" opacity="0.6"/>
  <circle cx="139" cy="41" r="15" fill="#fbbf24"/>
  <path d="M127 41 Q139 34 151 41" fill="none" stroke="white" stroke-width="2" opacity="0.7"/>
  <path d="M127 41 Q139 48 151 41" fill="none" stroke="white" stroke-width="2" opacity="0.7"/>
</svg>
